<svg width="38" height="38" viewBox="0 0 38 38" fill="none" xmlns="http://www.w3.org/2000/svg">
<mask id="mask0_10356_966" style="mask-type:alpha" maskUnits="userSpaceOnUse" x="0" y="0" width="38" height="38">
<rect width="38" height="38" fill="#D9D9D9"/>
</mask>
<g mask="url(#mask0_10356_966)">
<path d="M24.9755 20.5401L23.1974 18.762C23.4349 17.4507 23.0608 16.2718 22.0752 15.2252C21.0898 14.1789 19.8806 13.7745 18.4474 14.012L16.6693 12.2339C17.0266 12.0734 17.393 11.9531 17.7685 11.8729C18.144 11.7927 18.555 11.7526 19.0015 11.7526C20.7981 11.7526 22.3231 12.3793 23.5766 13.6328C24.8301 14.8862 25.4568 16.4112 25.4568 18.2078C25.4568 18.6543 25.4167 19.0705 25.3365 19.4563C25.2562 19.8418 25.1359 20.2031 24.9755 20.5401ZM30.0116 25.4666L28.264 23.8286C29.2668 23.0634 30.1574 22.2255 30.9359 21.3151C31.7144 20.4047 32.3807 19.3689 32.9349 18.2078C31.6154 15.5425 29.722 13.4248 27.2547 11.8547C24.7873 10.2845 22.0363 9.49947 19.0015 9.49947C18.2363 9.49947 17.4842 9.55225 16.7453 9.6578C16.0064 9.76336 15.2807 9.92169 14.5682 10.1328L12.7232 8.28783C13.7239 7.88988 14.7459 7.59657 15.7894 7.40789C16.8328 7.21894 17.9035 7.12447 19.0015 7.12447C22.7121 7.12447 26.0583 8.14757 29.0403 10.1938C32.0222 12.24 34.1973 14.9113 35.5656 18.2078C34.979 19.6225 34.2213 20.943 33.2927 22.1693C32.3638 23.3953 31.2701 24.4944 30.0116 25.4666ZM31.2906 34.6258L24.8844 28.2679C24.0724 28.5685 23.1726 28.8142 22.1848 29.005C21.1974 29.1957 20.1363 29.2911 19.0015 29.2911C15.2807 29.2911 11.9345 28.268 8.96281 26.2218C5.9909 24.1757 3.81579 21.5043 2.4375 18.2078C3.02201 16.8092 3.77713 15.5045 4.70285 14.2938C5.62858 13.0828 6.64758 12.0328 7.75987 11.1438L3.37523 6.71043L5.04406 5.04199L32.959 32.9569L31.2906 34.6258ZM9.42871 12.8122C8.59218 13.478 7.77861 14.2784 6.988 15.2133C6.19739 16.148 5.55746 17.1462 5.06821 18.2078C6.38765 20.8731 8.28106 22.9908 10.7484 24.5609C13.2158 26.1311 15.9668 26.9161 19.0015 26.9161C19.7222 26.9161 20.4399 26.8552 21.1545 26.7333C21.8688 26.6116 22.4747 26.4859 22.9721 26.356L20.9684 24.3036C20.6985 24.4132 20.3859 24.5004 20.0307 24.5653C19.6755 24.6305 19.3325 24.6631 19.0015 24.6631C17.205 24.6631 15.68 24.0363 14.4265 22.7828C13.173 21.5294 12.5463 20.0044 12.5463 18.2078C12.5463 17.8872 12.5789 17.5518 12.6441 17.2016C12.709 16.8514 12.7962 16.5312 12.9057 16.2409L9.42871 12.8122Z" fill="#1C1B1F"/>
</g>
</svg>
