<svg width="38" height="38" viewBox="0 0 38 38" fill="none" xmlns="http://www.w3.org/2000/svg">
<mask id="mask0_10356_972" style="mask-type:alpha" maskUnits="userSpaceOnUse" x="0" y="0" width="38" height="38">
<rect width="38" height="38" fill="#D9D9D9"/>
</mask>
<g mask="url(#mask0_10356_972)">
<path d="M19.0015 22.4833C17.814 22.4833 16.8047 22.0677 15.9734 21.2365C15.1422 20.4052 14.7265 19.3958 14.7265 18.2083C14.7265 17.0208 15.1422 16.0115 15.9734 15.1802C16.8047 14.349 17.814 13.9333 19.0015 13.9333C20.189 13.9333 21.1984 14.349 22.0297 15.1802C22.8609 16.0115 23.2765 17.0208 23.2765 18.2083C23.2765 19.3958 22.8609 20.4052 22.0297 21.2365C21.1984 22.0677 20.189 22.4833 19.0015 22.4833ZM19.0067 29.2917C15.3637 29.2917 12.0452 28.2873 9.05108 26.2786C6.057 24.2701 3.85247 21.58 2.4375 18.2083C3.85247 14.8366 6.05647 12.1465 9.0495 10.1381C12.0425 8.12936 15.3599 7.125 19.0015 7.125C22.4991 7.125 25.6988 8.05415 28.6005 9.91246C31.5022 11.771 33.7082 14.2724 35.2184 17.4167H32.4995C31.1272 14.9625 29.2404 13.0295 26.839 11.6177C24.4377 10.2059 21.8252 9.5 19.0015 9.5C16.0196 9.5 13.2817 10.2851 10.788 11.8552C8.29425 13.4253 6.38765 15.5431 5.06821 18.2083C6.38765 20.8736 8.29425 22.9913 10.788 24.5615C13.2817 26.1316 16.0196 26.9167 19.0015 26.9167C19.499 26.9167 19.998 26.8928 20.4986 26.845C20.9992 26.7973 21.4999 26.7257 22.0008 26.6305V29.0296C21.5018 29.1046 21.0027 29.167 20.5037 29.2169C20.0047 29.2667 19.5057 29.2917 19.0067 29.2917ZM19.0015 24.6636C19.5678 24.6636 20.1149 24.5925 20.6427 24.4502C21.1704 24.3083 21.6617 24.1084 22.1164 23.8505C22.2789 22.7543 22.6489 21.7648 23.2263 20.8818C23.8037 19.9988 24.537 19.2711 25.4263 18.6988C25.4363 18.6154 25.4439 18.5336 25.4489 18.4534C25.4542 18.3731 25.4568 18.2915 25.4568 18.2083C25.4568 16.4152 24.8289 14.8911 23.573 13.6361C22.3172 12.3807 20.7922 11.7531 18.998 11.7531C17.2038 11.7531 15.68 12.381 14.4265 13.6369C13.173 14.8927 12.5463 16.4177 12.5463 18.2119C12.5463 20.0061 13.174 21.5299 14.4293 22.7834C15.6843 24.0368 17.2084 24.6636 19.0015 24.6636ZM26.5984 32.4734C26.193 32.4734 25.8532 32.3363 25.5787 32.0621C25.3045 31.7877 25.1674 31.4478 25.1674 31.0424V26.5208C25.1674 26.1129 25.314 25.7748 25.6072 25.5067C25.9007 25.2389 26.2565 25.1049 26.6748 25.1049V23.5216C26.6748 22.7136 26.9627 22.0219 27.5385 21.4466C28.1143 20.8711 28.8065 20.5833 29.615 20.5833C30.4236 20.5833 31.1125 20.8711 31.6817 21.4466C32.2511 22.0219 32.5359 22.7136 32.5359 23.5216V25.1049C32.9541 25.1049 33.3099 25.2389 33.603 25.5067C33.8965 25.7748 34.0432 26.1129 34.0432 26.5208V31.0424C34.0432 31.4478 33.906 31.7877 33.6315 32.0621C33.3574 32.3363 33.0175 32.4734 32.6119 32.4734H26.5984ZM28.0752 25.1049H31.1354V23.5216C31.1354 23.073 30.9938 22.7046 30.7107 22.4164C30.4275 22.128 30.0617 21.9838 29.613 21.9838C29.1644 21.9838 28.7959 22.128 28.5075 22.4164C28.2193 22.7046 28.0752 23.073 28.0752 23.5216V25.1049Z" fill="#1C1B1F"/>
</g>
</svg>
